<svg width="30" height="24" viewBox="0 0 30 24" fill="none" xmlns="http://www.w3.org/2000/svg">
<path d="M7.5 11.9521L0 24H4.09091C8.08442 24 8.37662 23.8057 11.4935 18.4618C15.0974 12.535 14.7078 12.535 18.7987 18.6562C19.5779 19.7249 20.4545 20.3079 20.8442 19.9193C21.4286 19.3363 15.8766 9.42589 15 9.42589C14.8052 9.42589 12.8571 12.2436 10.7143 15.7413C8.47403 19.2391 6.23377 22.0568 5.64935 22.0568C5.06493 22.0568 4.87013 21.3767 5.16234 20.4051C5.94156 18.4618 14.6104 4.56786 15.0974 4.56786C15.5844 4.56786 25.2273 20.4051 25.2273 21.2795C25.2273 21.6681 23.5714 22.0568 21.526 22.0568C18.5065 22.0568 17.5325 21.571 16.461 19.6278C15.6818 18.1704 14.8052 17.4902 14.2208 18.0732C13.7338 18.559 14.026 19.9193 15 21.4738C16.5584 23.8057 17.2403 24 23.3766 24H30L22.5974 12.0492C18.6039 5.53946 15.1948 0.0984649 15.0974 0.00130416C15 -0.0958565 11.5909 5.24798 7.5 11.9521Z" fill="white"/>
</svg>
