<svg width="162" height="26" viewBox="0 0 162 26" fill="none" xmlns="http://www.w3.org/2000/svg">
<path d="M0.672 12.28C0.672 10.904 0.928 9.696 1.44 8.656C1.968 7.616 2.68 6.816 3.576 6.256C4.472 5.696 5.472 5.416 6.576 5.416C7.52 5.416 8.344 5.608 9.048 5.992C9.768 6.376 10.32 6.88 10.704 7.504V5.608H14.808V19H10.704V17.104C10.304 17.728 9.744 18.232 9.024 18.616C8.32 19 7.496 19.192 6.552 19.192C5.464 19.192 4.472 18.912 3.576 18.352C2.68 17.776 1.968 16.968 1.44 15.928C0.928 14.872 0.672 13.656 0.672 12.28ZM10.704 12.304C10.704 11.28 10.416 10.472 9.84 9.88C9.28 9.288 8.592 8.992 7.776 8.992C6.96 8.992 6.264 9.288 5.688 9.88C5.128 10.456 4.848 11.256 4.848 12.28C4.848 13.304 5.128 14.12 5.688 14.728C6.264 15.32 6.96 15.616 7.776 15.616C8.592 15.616 9.28 15.32 9.84 14.728C10.416 14.136 10.704 13.328 10.704 12.304ZM34.8651 5.464C36.5291 5.464 37.8491 5.968 38.8251 6.976C39.8171 7.984 40.3131 9.384 40.3131 11.176V19H36.2331V11.728C36.2331 10.864 36.0011 10.2 35.5371 9.736C35.0891 9.256 34.4651 9.016 33.6651 9.016C32.8651 9.016 32.2331 9.256 31.7691 9.736C31.3211 10.2 31.0971 10.864 31.0971 11.728V19H27.0171V11.728C27.0171 10.864 26.7851 10.2 26.3211 9.736C25.8731 9.256 25.2491 9.016 24.4491 9.016C23.6491 9.016 23.0171 9.256 22.5531 9.736C22.1051 10.2 21.8811 10.864 21.8811 11.728V19H17.7771V5.608H21.8811V7.288C22.2971 6.728 22.8411 6.288 23.5131 5.968C24.1851 5.632 24.9451 5.464 25.7931 5.464C26.8011 5.464 27.6971 5.68 28.4811 6.112C29.2811 6.544 29.9051 7.16 30.3531 7.96C30.8171 7.224 31.4491 6.624 32.2491 6.16C33.0491 5.696 33.9211 5.464 34.8651 5.464ZM47.2873 7.504C47.6873 6.88 48.2393 6.376 48.9433 5.992C49.6473 5.608 50.4713 5.416 51.4153 5.416C52.5193 5.416 53.5193 5.696 54.4153 6.256C55.3113 6.816 56.0153 7.616 56.5273 8.656C57.0553 9.696 57.3193 10.904 57.3193 12.28C57.3193 13.656 57.0553 14.872 56.5273 15.928C56.0153 16.968 55.3113 17.776 54.4153 18.352C53.5193 18.912 52.5193 19.192 51.4153 19.192C50.4873 19.192 49.6633 19 48.9433 18.616C48.2393 18.232 47.6873 17.736 47.2873 17.128V25.384H43.1833V5.608H47.2873V7.504ZM53.1433 12.28C53.1433 11.256 52.8553 10.456 52.2793 9.88C51.7193 9.288 51.0233 8.992 50.1913 8.992C49.3753 8.992 48.6793 9.288 48.1033 9.88C47.5433 10.472 47.2633 11.28 47.2633 12.304C47.2633 13.328 47.5433 14.136 48.1033 14.728C48.6793 15.32 49.3753 15.616 50.1913 15.616C51.0073 15.616 51.7033 15.32 52.2793 14.728C52.8553 14.12 53.1433 13.304 53.1433 12.28ZM63.5764 1.24V19H59.4724V1.24H63.5764ZM79.1745 12.088C79.1745 12.472 79.1505 12.872 79.1025 13.288H69.8145C69.8785 14.12 70.1425 14.76 70.6065 15.208C71.0865 15.64 71.6705 15.856 72.3585 15.856C73.3825 15.856 74.0945 15.424 74.4945 14.56H78.8625C78.6385 15.44 78.2305 16.232 77.6385 16.936C77.0625 17.64 76.3345 18.192 75.4545 18.592C74.5745 18.992 73.5905 19.192 72.5025 19.192C71.1905 19.192 70.0225 18.912 68.9985 18.352C67.9745 17.792 67.1745 16.992 66.5985 15.952C66.0225 14.912 65.7345 13.696 65.7345 12.304C65.7345 10.912 66.0145 9.696 66.5745 8.656C67.1505 7.616 67.9505 6.816 68.9745 6.256C69.9985 5.696 71.1745 5.416 72.5025 5.416C73.7985 5.416 74.9505 5.688 75.9585 6.232C76.9665 6.776 77.7505 7.552 78.3105 8.56C78.8865 9.568 79.1745 10.744 79.1745 12.088ZM74.9745 11.008C74.9745 10.304 74.7345 9.744 74.2545 9.328C73.7745 8.912 73.1745 8.704 72.4545 8.704C71.7665 8.704 71.1825 8.904 70.7025 9.304C70.2385 9.704 69.9505 10.272 69.8385 11.008H74.9745ZM98.0775 15.016H90.4455L88.9815 19H87.2055L93.3255 2.44H95.2215L101.318 19H99.5415L98.0775 15.016ZM97.5735 13.624L94.2615 4.552L90.9495 13.624H97.5735ZM103.246 12.424C103.246 11.08 103.518 9.904 104.062 8.896C104.606 7.872 105.35 7.088 106.294 6.544C107.254 5.984 108.334 5.704 109.534 5.704C110.686 5.704 111.726 5.984 112.654 6.544C113.582 7.104 114.262 7.832 114.694 8.728V1.24H116.374V19H114.694V16.072C114.294 16.984 113.638 17.736 112.726 18.328C111.814 18.904 110.742 19.192 109.51 19.192C108.31 19.192 107.23 18.912 106.27 18.352C105.326 17.792 104.582 17 104.038 15.976C103.51 14.952 103.246 13.768 103.246 12.424ZM114.694 12.448C114.694 11.392 114.478 10.464 114.046 9.664C113.614 8.864 113.022 8.248 112.27 7.816C111.534 7.384 110.718 7.168 109.822 7.168C108.894 7.168 108.062 7.376 107.326 7.792C106.59 8.208 106.006 8.816 105.574 9.616C105.158 10.4 104.95 11.336 104.95 12.424C104.95 13.496 105.158 14.44 105.574 15.256C106.006 16.056 106.59 16.672 107.326 17.104C108.062 17.52 108.894 17.728 109.822 17.728C110.718 17.728 111.534 17.512 112.27 17.08C113.022 16.648 113.614 16.032 114.046 15.232C114.478 14.432 114.694 13.504 114.694 12.448ZM135.809 5.656C137.345 5.656 138.593 6.144 139.553 7.12C140.529 8.08 141.017 9.48 141.017 11.32V19H139.361V11.512C139.361 10.088 139.017 9 138.329 8.248C137.641 7.496 136.705 7.12 135.521 7.12C134.289 7.12 133.305 7.528 132.569 8.344C131.833 9.16 131.465 10.344 131.465 11.896V19H129.809V11.512C129.809 10.088 129.465 9 128.777 8.248C128.089 7.496 127.145 7.12 125.945 7.12C124.713 7.12 123.729 7.528 122.993 8.344C122.257 9.16 121.889 10.344 121.889 11.896V19H120.209V5.896H121.889V8.152C122.305 7.336 122.897 6.72 123.665 6.304C124.433 5.872 125.289 5.656 126.233 5.656C127.369 5.656 128.361 5.928 129.209 6.472C130.073 7.016 130.697 7.816 131.081 8.872C131.433 7.832 132.033 7.04 132.881 6.496C133.745 5.936 134.721 5.656 135.809 5.656ZM145.588 3.424C145.252 3.424 144.964 3.304 144.724 3.064C144.484 2.824 144.364 2.528 144.364 2.176C144.364 1.824 144.484 1.536 144.724 1.312C144.964 1.072 145.252 0.951999 145.588 0.951999C145.924 0.951999 146.212 1.072 146.452 1.312C146.692 1.536 146.812 1.824 146.812 2.176C146.812 2.528 146.692 2.824 146.452 3.064C146.212 3.304 145.924 3.424 145.588 3.424ZM146.428 5.896V19H144.748V5.896H146.428ZM156.377 5.656C157.945 5.656 159.225 6.144 160.217 7.12C161.209 8.08 161.705 9.48 161.705 11.32V19H160.049V11.512C160.049 10.088 159.689 9 158.969 8.248C158.265 7.496 157.297 7.12 156.065 7.12C154.801 7.12 153.793 7.52 153.041 8.32C152.289 9.12 151.913 10.296 151.913 11.848V19H150.233V5.896H151.913V8.128C152.329 7.328 152.929 6.72 153.713 6.304C154.497 5.872 155.385 5.656 156.377 5.656Z" fill="#444444"/>
</svg>
